Coordinates
version=1
nRows=17
nColumns=38
inDegrees=no

Units are S.I. units (second, meters, Newtons, ...)
If the header above contains a line with 'inDegrees', this indicates whether rotational values are in degrees (yes) or radians (no).

endheader
time	pelvis_tilt	pelvis_list	pelvis_rotation	pelvis_tx	pelvis_ty	pelvis_tz	hip_flexion_r	hip_adduction_r	hip_rotation_r	knee_angle_r	ankle_angle_r	subtalar_angle_r	mtp_angle_r	hip_flexion_l	hip_adduction_l	hip_rotation_l	knee_angle_l	ankle_angle_l	subtalar_angle_l	mtp_angle_l	lumbar_extension	lumbar_bending	lumbar_rotation	arm_flex_r	arm_add_r	arm_rot_r	elbow_flex_r	pro_sup_r	wrist_flex_r	wrist_dev_r	arm_flex_l	arm_add_l	arm_rot_l	elbow_flex_l	pro_sup_l	wrist_flex_l	wrist_dev_l
1.98	-0.101379	1.38365	-1.40323	0.742604	-0.554043	1.0567	-0.250945	-0.0258224	-0.0692167	0.59498	-0.195701	0	0	0.0476761	-0.067494	-0.178617	0	-0.149826	0	0	-0.522029	0.0363623	0.233766	0.0950422	-0.660938	0.81203	0.915347	0.677243	0	0	0.161832	-0.317055	0.59574	0.684219	0.7294	0	0
1.99	-0.106586	1.38441	-1.4018	0.74562	-0.564602	1.05489	-0.256718	-0.0296808	-0.067214	0.602095	-0.194984	0	0	0.0466943	-0.0678495	-0.182039	0	-0.148266	0	0	-0.518507	0.0359314	0.235779	0.0909197	-0.661176	0.808855	0.916192	0.679776	0	0	0.158264	-0.31872	0.598076	0.687282	0.726002	0	0
2	-0.106515	1.38365	-1.40582	0.748663	-0.575291	1.05331	-0.264303	-0.0344444	-0.0661793	0.609365	-0.195815	0	0	0.0452246	-0.0676126	-0.18478	0.00320235	-0.146971	0	0	-0.516308	0.0346397	0.238053	0.0863222	-0.661304	0.805497	0.916992	0.682504	0	0	0.155391	-0.321087	0.602246	0.690141	0.72607	0	0
2.01	-0.133915	1.43788	-1.31437	0.754644	-0.595055	1.04682	-0.246438	-0.024429	-0.160538	0.581094	-0.207576	0	0	0.118047	-0.0611295	-0.100089	0.0519567	-0.13287	0	0	-0.437802	0.0366342	0.185245	0.0661192	-0.588276	0.792097	0.834264	0.702367	0	0	0.144012	-0.337022	0.613028	0.667133	0.733828	0	0
2.02	-0.104428	1.38276	-1.41411	0.755053	-0.596878	1.05006	-0.277867	-0.0441352	-0.0642603	0.625679	-0.200268	0	0	0.0490668	-0.067058	-0.179431	0.0736344	-0.118908	0	0	-0.51099	0.0318784	0.242862	0.0716928	-0.658039	0.789985	0.916036	0.695123	0	0	0.15166	-0.3258	0.615543	0.693617	0.723682	0	0
2.03	-0.111952	1.43401	-1.34277	0.761632	-0.617587	1.04432	-0.265858	-0.0365709	-0.162087	0.594359	-0.217617	0	0	0.113518	-0.0571365	-0.0958561	0.116623	-0.107625	0	0	-0.434041	0.032617	0.189521	0.0527304	-0.584455	0.780582	0.830523	0.713681	0	0	0.138502	-0.339705	0.624444	0.667634	0.731004	0	0
2.04	-0.0710533	1.37256	-1.45789	0.76168	-0.618941	1.048	-0.300128	-0.0627941	-0.0625377	0.643981	-0.211321	0	0	0.0350022	-0.0591523	-0.18128	0.123086	-0.103292	0	0	-0.514854	0.0231257	0.249457	0.0574945	-0.658547	0.77831	0.919654	0.700849	0	0	0.145951	-0.330549	0.627601	0.700781	0.711079	0	0
2.05	-0.102197	1.4278	-1.36376	0.768127	-0.639058	1.04192	-0.278724	-0.0476697	-0.148661	0.618419	-0.230803	0	0	0.106714	-0.0545863	-0.0923322	0.155849	-0.100564	0	0	-0.434739	0.0290038	0.198235	0.0415591	-0.586076	0.771274	0.834022	0.71912	0	0	0.132505	-0.341779	0.632808	0.673517	0.713822	0	0
2.06	-0.0939619	1.43087	-1.37427	0.772242	-0.650898	1.04047	-0.278616	-0.0559162	-0.149749	0.632465	-0.239558	0	0	0.107828	-0.0496198	-0.0873371	0.165794	-0.107731	0	0	-0.424048	0.0266193	0.197161	0.0384881	-0.57957	0.774263	0.821872	0.728054	0	0	0.125831	-0.340379	0.632878	0.668936	0.71225	0	0
2.07	-0.0772292	1.43315	-1.39227	0.776372	-0.662776	1.03936	-0.278714	-0.0650783	-0.152113	0.647544	-0.251523	0	0	0.106056	-0.0436905	-0.0824514	0.171847	-0.122609	0	0	-0.415525	0.0233202	0.196192	0.0337456	-0.573986	0.774276	0.812874	0.734567	0	0	0.120131	-0.340005	0.63355	0.666311	0.711059	0	0
2.08	-0.0556446	1.43708	-1.41351	0.780599	-0.674874	1.03835	-0.276116	-0.0751834	-0.156699	0.664514	-0.268986	0	0	0.104609	-0.0380481	-0.0792453	0.17479	-0.146426	0	0	-0.40485	0.0192045	0.194114	0.0283251	-0.566	0.772959	0.801149	0.741772	0	0	0.114707	-0.34012	0.635327	0.663013	0.709077	0	0
2.09	-0.0354805	1.43999	-1.43425	0.785019	-0.686671	1.03746	-0.271862	-0.0858849	-0.158434	0.685119	-0.284289	0	0	0.100923	-0.0321455	-0.0756827	0.177377	-0.164266	0	0	-0.396032	0.0161171	0.192729	0.0227427	-0.561258	0.771323	0.793624	0.745884	0	0	0.1096	-0.339441	0.637057	0.6602	0.708122	0	0
2.1	-0.0165656	1.4426	-1.45458	0.789541	-0.698201	1.03677	-0.264512	-0.0973367	-0.157983	0.710059	-0.30332	0	0	0.0967026	-0.0271163	-0.0734613	0.179094	-0.182878	0	0	-0.38765	0.0136191	0.192048	0.01796	-0.557192	0.770565	0.785808	0.749353	0	0	0.105243	-0.337544	0.639441	0.655884	0.707193	0	0
2.11	0.00156642	1.44468	-1.47359	0.794109	-0.709621	1.03649	-0.255584	-0.108411	-0.155783	0.736714	-0.326647	0	0	0.0923777	-0.0232685	-0.0712967	0.183023	-0.199862	0	0	-0.380221	0.011544	0.191112	0.0142963	-0.552362	0.770725	0.776089	0.752009	0	0	0.101857	-0.33474	0.642107	0.649793	0.705996	0	0
2.12	0.0208853	1.44578	-1.49296	0.79868	-0.720968	1.03679	-0.245569	-0.119151	-0.152511	0.764745	-0.355552	0	0	0.0887698	-0.0204646	-0.0694524	0.193221	-0.211748	0	0	-0.374222	0.00949599	0.189559	0.0119951	-0.546675	0.772189	0.764638	0.754586	0	0	0.0996321	-0.331441	0.645129	0.64215	0.704752	0	0
2.13	0.0419568	1.44634	-1.51436	0.803046	-0.732082	1.03763	-0.233443	-0.129805	-0.148146	0.794038	-0.389681	0	0	0.0874128	-0.0186232	-0.0703051	0.21171	-0.216465	0	0	-0.369803	0.00690138	0.188084	0.0112878	-0.540673	0.77421	0.752707	0.756616	0	0	0.0985429	-0.328198	0.648111	0.634205	0.703167	0	0
2.14	0.0639726	1.44696	-1.53676	0.807255	-0.74295	1.0389	-0.218263	-0.140311	-0.143059	0.824519	-0.435654	0	0	0.0886746	-0.01751	-0.0754492	0.236459	-0.21437	0	0	-0.365915	0.00391463	0.186692	0.0124377	-0.534243	0.778113	0.739481	0.758665	0	0	0.0990942	-0.325091	0.652902	0.625412	0.700945	0	0
